<svg xmlns="http://www.w3.org/2000/svg" viewBox="0 0 168 53"><path d="m17.29 25.89-3.68-3.23V7.4c.59.2 1.11.49 1.53.87.89.81 1.5 1.87 1.86 3.19.35 1.32.59 2.76.71 4.34l5.67-.53c-.2-2.09-.58-4.9-1.15-6.46-.57-1.55-1.34-2.84-2.3-3.87-.96-1.02-2.16-1.78-3.6-2.27-.83-.28-1.73-.47-2.71-.59V-.24h-3.08v2.21c-3.09.13-5.56 1.08-7.41 2.85C1.12 6.75.12 9.46.12 12.97c0 2.4.37 4.42 1.12 6.05.75 1.63 1.91 3.14 3.48 4.52l5.81 5.12v16.42c-.7-.25-1.3-.63-1.79-1.15-.94-1-1.62-2.29-2.04-3.87-.41-1.57-.68-3.21-.8-4.9l-5.9.59c.16 2.75.71 6.17 1.65 8.26s2.33 3.72 4.16 4.9c1.33.86 2.9 1.39 4.72 1.63v2.21h3.08v-2.12c1.86-.11 3.54-.53 5.01-1.31 1.71-.9 3.06-2.21 4.04-3.93.98-1.71 1.48-3.75 1.48-6.11 0-2.99-.69-5.58-2.07-7.76-1.37-2.18-2.97-4.05-4.78-5.63zm-8.08-7.08c-1.1-.98-1.9-1.95-2.39-2.89-.49-.94-.74-2.14-.74-3.6 0-1.73.46-3.04 1.39-3.93.77-.73 1.8-1.15 3.06-1.27v12.85l-1.32-1.16zm7.41 25.17c-.72.78-1.73 1.23-3 1.38V31.42c1.11 1.07 2.07 2.13 2.86 3.18.98 1.32 1.48 3.06 1.48 5.22-.02 1.81-.46 3.2-1.34 4.16zM47.47 3.91c-1.71-1.04-4-1.56-6.88-1.56H28.73v47.81h6.67V27.9h5.25c2.6 0 4.76-.5 6.49-1.51 1.73-1 3.04-2.43 3.92-4.28.89-1.85 1.33-4.03 1.33-6.55 0-2.79-.39-5.17-1.18-7.14-.78-1.97-2.03-3.47-3.74-4.51zm-2.1 16.29c-.47 1.08-1.26 1.84-2.36 2.27-1.1.43-2.62.65-4.54.65H35.4v-16h3.13c2.24 0 3.9.24 4.96.71s1.76 1.32 2.1 2.54c.33 1.22.5 2.97.5 5.25-.01 1.97-.25 3.49-.72 4.58zM63.73 27.84h9.62v-4.72h-9.62V7.3h11.86V2.34H57.06v47.81h18.65v-4.78H63.73zM99.2 34.1 85.62 2.34h-4.54v47.81h5.67V17.51l13.75 32.64h4.25V2.34H99.2zM131.04 3.96c-2.06-1.08-4.87-1.62-8.41-1.62h-10.39v47.81h10.92c3.34 0 6.01-.6 8-1.8 1.99-1.2 3.42-2.96 4.31-5.28.88-2.32 1.33-5.17 1.33-8.56V16.92c0-3.23-.44-5.92-1.33-8.09-.89-2.16-2.36-3.78-4.43-4.87zm-.97 29.31c0 2.56-.11 4.74-.33 6.55-.22 1.81-.84 3.19-1.86 4.13s-2.75 1.42-5.19 1.42h-3.78V7.3h3.6c2.28 0 3.95.35 5.02 1.06 1.06.71 1.75 1.83 2.07 3.36.31 1.53.47 3.54.47 6.02v15.53zM161.11 26.19c1.42-.47 2.56-1.23 3.42-2.27.87-1.04 1.49-2.32 1.89-3.84.39-1.51.59-3.2.59-5.05 0-3.03-.5-5.48-1.51-7.35-1-1.87-2.55-3.23-4.63-4.07-2.09-.85-4.72-1.27-7.91-1.27h-9.62v47.81h6.67V27.72h5.19l6.26 22.43h6.43l-6.78-23.96zm-1.35-6.38a4.745 4.745 0 0 1-2.6 2.42c-1.18.47-2.71.71-4.6.71h-2.54V7.12h2.95c3.03 0 5.05.62 6.08 1.86 1.02 1.24 1.54 3.26 1.54 6.05-.01 2.05-.28 3.64-.83 4.78z"/></svg>
